<?xml version="1.0" standalone="no"?>
<!DOCTYPE svg PUBLIC "-//W3C//DTD SVG 20010904//EN"
 "http://www.w3.org/TR/2001/REC-SVG-20010904/DTD/svg10.dtd">
<svg version="1.0" xmlns="http://www.w3.org/2000/svg"
 width="2253.000000pt" height="2253.000000pt" viewBox="0 0 2253.000000 2253.000000"
 preserveAspectRatio="xMidYMid meet">
<metadata>
Created by potrace 1.14, written by Peter Selinger 2001-2017
</metadata>
<g transform="translate(0.000000,2253.000000) scale(0.100000,-0.100000)"
fill="#000000" stroke="none">
<path d="M4628 22525 c-2 -1 -45 -6 -95 -9 -51 -4 -103 -9 -115 -11 -13 -2
-45 -7 -72 -10 -43 -5 -157 -24 -240 -40 -251 -50 -615 -180 -854 -307 -177
-94 -492 -298 -552 -358 -3 -3 -27 -23 -55 -45 -64 -51 -110 -92 -214 -190
-221 -210 -310 -306 -501 -542 -44 -54 -165 -235 -229 -342 -237 -396 -388
-866 -428 -1336 -10 -118 -10 -452 0 -535 15 -127 15 -123 44 -280 2 -14 9
-45 14 -70 6 -25 13 -56 15 -70 3 -14 7 -33 10 -42 3 -9 7 -25 9 -35 7 -38 68
-253 101 -363 20 -63 43 -139 51 -168 18 -60 14 -59 118 -12 33 15 110 49 170
75 124 53 176 76 253 111 l54 24 -7 63 c-4 34 -8 69 -10 77 -1 8 -6 49 -10 90
-4 41 -9 82 -10 90 -1 8 -6 44 -9 80 -4 36 -10 90 -15 121 -14 108 -4 301 24
457 24 128 25 134 56 227 133 398 416 703 794 856 17 7 160 51 175 54 3 1 30
7 60 13 245 53 606 45 940 -23 14 -2 50 -10 80 -16 191 -37 429 -108 870 -258
129 -44 280 -93 335 -110 101 -31 475 -127 530 -137 17 -3 89 -16 160 -29 146
-26 205 -34 380 -50 135 -12 427 -8 655 10 85 6 118 10 390 41 25 3 56 7 70 9
14 3 43 7 65 10 22 3 54 7 70 10 17 3 48 7 70 11 22 3 148 26 280 50 132 25
254 47 270 50 125 22 802 183 1000 238 l90 25 -210 -208 c-248 -246 -519 -528
-622 -647 -10 -12 -41 -48 -69 -80 -162 -186 -243 -285 -384 -464 -49 -63 -94
-119 -98 -125 -37 -46 -231 -323 -297 -425 -156 -238 -348 -588 -428 -780
-138 -326 -254 -698 -328 -1050 -11 -52 -22 -104 -25 -115 -2 -10 -6 -37 -10
-59 -3 -22 -7 -43 -9 -46 -2 -3 -6 -26 -10 -50 -3 -25 -13 -83 -21 -130 -8
-47 -17 -103 -19 -125 -5 -47 -16 -134 -20 -155 -3 -17 -14 -112 -20 -185 -3
-27 -7 -70 -10 -95 -6 -58 -12 -131 -21 -255 -3 -55 -8 -125 -10 -155 -9 -121
-13 -988 -5 -1035 5 -27 12 -72 15 -98 4 -26 11 -70 16 -96 16 -85 39 -283 46
-390 7 -103 7 -103 -15 -92 -11 7 -21 9 -21 7 0 -3 -18 1 -40 9 -22 8 -40 12
-40 10 0 -2 -15 1 -32 6 -18 5 -46 12 -63 15 -16 3 -57 11 -90 18 -33 8 -94
19 -135 26 -41 7 -84 14 -94 16 -317 59 -770 62 -1081 8 -597 -103 -1160 -391
-1690 -864 -79 -70 -365 -359 -415 -419 -25 -29 -56 -65 -70 -80 -14 -14 -37
-41 -52 -59 l-28 -33 128 -106 c70 -58 162 -135 205 -171 l79 -65 31 18 c18
10 34 22 37 25 10 13 175 118 255 162 215 117 485 210 713 244 228 34 558 37
782 8 84 -11 179 -27 235 -40 33 -7 71 -15 85 -17 82 -15 272 -84 405 -148
556 -264 932 -777 1119 -1524 14 -55 27 -111 30 -125 23 -120 47 -250 50 -275
2 -16 9 -66 15 -110 30 -230 58 -690 42 -681 -3 2 -58 34 -121 71 -181 107
-431 232 -570 285 -30 11 -64 25 -75 30 -67 32 -308 99 -445 124 -145 27 -160
28 -345 31 -173 2 -226 -3 -410 -40 -115 -22 -334 -109 -488 -193 -97 -52
-301 -186 -359 -234 -15 -13 -36 -30 -46 -38 -127 -99 -297 -259 -460 -434
l-63 -68 58 -66 c32 -37 100 -115 151 -173 l92 -106 68 24 c150 56 329 102
527 138 140 25 369 25 560 0 300 -39 657 -199 910 -407 280 -231 539 -590 671
-933 17 -44 35 -89 39 -100 4 -11 9 -24 10 -30 2 -5 12 -41 23 -80 26 -89 58
-227 66 -285 23 -177 26 -216 25 -400 0 -140 -1 -178 -13 -305 -14 -146 -55
-370 -95 -520 -42 -156 -51 -185 -94 -305 -128 -361 -303 -700 -550 -1070 -50
-74 -94 -139 -99 -145 -4 -5 -47 -62 -94 -125 -75 -99 -237 -302 -269 -336 -5
-6 -32 -37 -60 -69 -27 -31 -77 -87 -109 -124 -68 -76 -575 -582 -626 -625
-19 -16 -60 -52 -90 -79 -108 -98 -127 -115 -265 -232 -152 -129 -409 -335
-575 -461 -58 -43 -109 -82 -115 -87 -5 -4 -32 -24 -60 -46 -27 -21 -72 -54
-100 -73 -27 -19 -117 -83 -200 -143 -184 -131 -869 -588 -935 -622 -14 -8
-35 -21 -47 -31 l-22 -17 32 -53 c18 -29 81 -130 141 -225 60 -94 129 -205
155 -245 25 -40 50 -77 57 -83 9 -7 66 19 196 89 300 162 365 196 640 335 450
227 871 424 1263 592 99 42 199 85 222 96 24 10 46 19 49 19 3 0 20 7 37 15
18 8 84 35 147 60 63 25 124 50 135 55 11 5 56 23 100 39 44 17 134 51 200 76
66 25 127 48 135 50 8 2 76 26 150 53 386 141 922 309 1326 416 224 60 593
149 666 161 18 3 41 8 50 11 9 3 27 7 40 9 13 3 43 9 68 15 25 5 56 12 70 14
14 3 37 8 53 11 63 12 86 16 167 31 47 8 96 17 110 19 14 3 34 6 45 9 83 15
318 52 390 61 28 3 64 7 80 10 17 2 48 7 70 10 22 3 51 7 65 10 14 2 54 7 90
11 36 3 76 8 90 9 139 16 212 23 440 41 492 37 1243 37 1630 0 30 -3 87 -8
125 -11 89 -7 171 -15 215 -20 19 -3 60 -7 90 -10 30 -4 66 -8 80 -10 14 -2
45 -6 70 -10 89 -11 327 -48 386 -59 12 -3 37 -7 55 -10 19 -3 70 -13 114 -21
44 -9 89 -18 100 -20 77 -13 301 -64 465 -106 107 -27 211 -54 230 -59 30 -7
70 -19 160 -45 8 -3 38 -11 65 -19 243 -71 787 -263 985 -349 19 -9 51 -22 70
-30 293 -124 671 -303 920 -436 128 -69 443 -245 500 -281 8 -5 74 -45 145
-88 234 -142 411 -257 675 -441 96 -66 122 -85 139 -98 79 -61 296 -213 302
-211 4 2 65 57 135 123 71 66 162 151 204 190 41 38 102 95 135 126 33 32 71
67 84 79 14 11 76 69 139 128 63 59 126 118 141 131 42 39 251 233 285 266 18
17 86 80 151 140 66 61 129 119 141 130 11 11 50 47 85 80 36 33 121 112 189
176 148 138 157 146 290 269 56 52 119 111 140 130 20 19 90 85 155 145 66 61
133 124 151 140 17 17 78 73 135 126 57 53 120 112 140 130 20 19 80 75 135
125 104 96 122 114 244 228 63 59 199 185 330 306 176 163 220 204 220 209 0
8 -28 40 -151 172 -58 63 -119 128 -134 144 -26 29 -181 197 -236 256 l-26 28
-44 -41 c-24 -22 -100 -93 -168 -157 -67 -64 -139 -131 -160 -150 -20 -18 -90
-84 -156 -146 -66 -62 -136 -127 -155 -145 -40 -36 -101 -94 -315 -295 -82
-77 -186 -174 -230 -215 -44 -41 -111 -105 -150 -142 -60 -57 -72 -65 -87 -55
-9 7 -86 66 -170 132 -305 239 -665 486 -1013 694 -34 20 -70 41 -80 48 -184
113 -697 372 -950 481 -553 237 -1210 445 -1695 538 -14 3 -59 12 -100 20 -41
8 -84 17 -95 19 -32 6 -196 34 -240 40 -22 4 -51 8 -65 11 -14 2 -45 6 -70 9
-25 3 -54 8 -65 10 -11 2 -47 7 -80 10 -33 4 -71 8 -85 10 -14 3 -61 7 -105
10 -44 4 -91 8 -105 11 -41 6 -177 16 -440 30 -243 13 -856 7 -990 -10 -14 -2
-70 -7 -125 -10 -55 -4 -113 -9 -130 -11 -16 -3 -57 -7 -90 -10 -33 -3 -94
-10 -135 -15 -41 -5 -97 -12 -125 -15 -27 -4 -75 -10 -105 -15 -30 -5 -77 -11
-105 -15 -71 -8 -436 -71 -590 -101 -146 -29 -162 -32 -190 -38 -11 -2 -67
-14 -125 -26 -95 -19 -199 -43 -375 -86 -33 -8 -69 -16 -80 -18 -87 -17 -536
-136 -800 -211 -126 -36 -239 -68 -249 -70 -11 -3 -47 -13 -80 -24 -34 -11
-86 -27 -116 -35 l-55 -16 24 21 c13 11 52 44 85 74 34 29 72 63 86 75 14 12
52 45 85 73 33 29 80 70 105 93 38 35 300 260 479 413 30 25 59 51 65 56 9 9
55 48 189 165 16 14 41 36 56 50 15 14 43 38 62 55 106 92 481 431 608 550 29
27 68 64 86 80 394 368 965 941 1231 1234 27 30 56 62 64 71 68 74 123 136
170 190 30 35 75 87 100 115 25 28 63 73 86 100 23 28 66 79 96 115 30 36 110
137 179 225 483 618 757 1078 1004 1685 83 205 200 549 241 709 2 9 19 77 38
151 50 194 57 222 62 250 3 14 10 45 15 70 6 25 19 90 29 145 11 55 21 109 24
120 2 11 7 42 10 69 4 27 9 52 10 55 2 3 7 33 10 66 4 33 9 67 11 75 2 8 6 38
10 65 3 28 7 61 10 75 2 14 7 50 10 80 3 30 7 66 9 80 5 26 16 141 21 200 1
19 6 75 10 123 12 151 14 177 22 362 14 324 8 865 -12 1140 -3 39 -10 162 -20
320 -6 84 -12 172 -20 265 -3 30 -7 89 -10 130 -3 41 -7 101 -10 133 -3 31 -7
83 -10 115 -2 31 -7 84 -10 117 -6 66 -12 133 -20 240 -3 39 -8 86 -10 105 -2
19 -7 71 -10 115 -4 44 -8 94 -10 110 -2 17 -7 66 -10 110 -4 44 -8 94 -10
110 -3 17 -9 86 -15 155 -6 69 -13 139 -15 155 -2 17 -6 66 -10 110 -4 44 -8
91 -10 105 -2 14 -7 54 -10 90 -3 36 -8 83 -10 105 -2 22 -6 69 -10 105 -12
130 -33 337 -40 390 -2 19 -7 69 -11 110 -3 41 -7 82 -9 90 -2 8 -6 53 -10 99
-4 47 -8 92 -10 100 -1 9 -6 52 -10 96 -4 44 -8 94 -10 110 -4 29 -9 79 -21
203 -3 31 -7 73 -9 92 -2 19 -7 64 -10 100 -3 36 -8 83 -10 105 -2 22 -7 76
-11 120 -4 44 -8 94 -9 110 -2 17 -7 68 -10 115 -4 47 -9 92 -10 100 -2 8 -6
56 -10 105 -4 50 -8 106 -10 125 -23 240 -23 602 0 820 16 149 32 261 54 375
17 92 17 93 46 205 117 461 317 831 605 1121 250 253 515 424 935 604 123 53
342 128 570 194 126 37 437 107 560 127 22 3 43 8 46 9 3 2 28 7 55 11 27 3
58 8 69 10 24 5 206 33 252 39 18 2 48 6 65 9 18 3 60 8 93 11 33 4 70 9 82
12 24 6 23 13 -22 108 -12 28 -45 100 -73 160 -27 61 -64 142 -82 180 -18 39
-43 95 -57 125 -13 30 -38 86 -56 123 l-31 68 -406 -6 c-223 -2 -434 -7 -470
-9 -273 -20 -326 -24 -380 -30 -25 -3 -70 -8 -100 -11 -899 -93 -1735 -359
-2415 -768 -163 -98 -394 -258 -482 -333 -12 -11 -31 -26 -41 -34 -121 -94
-189 -157 -367 -335 -172 -172 -196 -197 -295 -320 -36 -44 -67 -82 -70 -85
-3 -3 -35 -45 -71 -95 -293 -400 -506 -816 -669 -1305 -58 -174 -156 -533
-173 -635 -3 -16 -17 -97 -32 -180 -31 -179 -33 -188 -40 -242 -3 -24 -7 -62
-11 -85 -3 -24 -7 -61 -9 -83 -3 -22 -7 -56 -9 -75 -3 -19 -8 -75 -12 -125 -4
-49 -8 -105 -9 -125 -30 -356 -20 -1132 20 -1660 13 -167 16 -207 20 -230 2
-14 7 -63 10 -110 4 -47 9 -96 10 -110 2 -14 6 -59 9 -100 4 -41 9 -95 12
-120 2 -25 7 -72 10 -105 14 -159 24 -265 29 -310 2 -22 7 -71 10 -110 3 -38
8 -88 10 -110 2 -22 7 -69 10 -105 3 -36 8 -81 10 -100 2 -19 7 -75 11 -125 3
-49 8 -99 10 -110 2 -11 6 -54 10 -95 3 -41 7 -86 9 -100 2 -14 7 -63 10 -110
4 -47 9 -93 11 -103 2 -10 6 -58 9 -105 3 -48 8 -94 10 -102 2 -8 7 -49 10
-90 7 -86 13 -145 20 -210 2 -25 7 -74 10 -110 3 -36 7 -76 9 -90 3 -14 8 -65
11 -115 4 -49 8 -103 10 -120 2 -16 7 -61 10 -100 3 -38 8 -92 11 -120 3 -27
7 -68 9 -90 1 -22 6 -71 9 -110 4 -38 9 -90 11 -115 2 -25 7 -76 10 -115 3
-38 8 -92 10 -120 3 -27 7 -81 10 -120 5 -70 10 -137 21 -275 6 -76 6 -517 0
-645 -8 -142 -18 -311 -21 -345 -2 -19 -6 -69 -9 -110 -4 -41 -8 -91 -11 -110
-2 -19 -7 -59 -10 -87 -9 -93 -16 -157 -20 -183 -2 -14 -7 -45 -10 -70 -12
-90 -45 -296 -55 -350 -6 -30 -13 -71 -16 -90 -3 -19 -21 -107 -39 -195 -19
-88 -36 -171 -39 -185 -9 -46 -74 -293 -111 -425 -59 -210 -214 -668 -261
-772 -8 -17 -14 -34 -14 -38 0 -4 -6 -21 -14 -38 -8 -18 -41 -95 -74 -172
-223 -520 -495 -1012 -827 -1495 -70 -102 -138 -198 -151 -215 -14 -16 -28
-35 -32 -40 -452 -616 -1042 -1238 -1682 -1775 -29 -25 -58 -50 -64 -55 -108
-100 -643 -506 -896 -680 -63 -44 -118 -84 -122 -89 -4 -6 -9 -8 -12 -5 -3 3
25 48 62 100 383 536 727 1058 1031 1568 67 111 121 204 121 207 0 2 16 28 35
58 19 30 35 57 35 60 0 2 22 42 48 88 27 46 77 137 112 203 35 66 78 147 96
180 346 651 666 1428 829 2010 9 33 22 80 30 105 16 54 101 402 109 445 7 40
14 74 31 149 7 33 16 77 19 96 3 19 14 80 25 135 11 55 22 120 25 145 3 25 8
56 11 70 3 14 8 45 11 70 3 25 7 56 9 70 2 14 7 48 11 75 3 28 8 59 10 70 2
11 7 49 10 83 3 35 7 71 9 80 1 10 6 53 10 97 3 44 8 96 10 115 47 397 60
1278 30 1995 -9 209 -17 385 -20 450 -3 39 -7 115 -10 170 -3 55 -7 129 -10
165 -2 36 -7 106 -10 155 -8 132 -14 212 -20 280 -3 33 -7 94 -10 135 -13 172
-25 329 -30 370 -2 19 -7 71 -10 115 -6 88 -11 138 -30 348 -2 28 -7 79 -10
112 -3 33 -7 83 -10 110 -3 28 -7 77 -10 110 -7 77 -14 148 -21 205 -2 25 -7
70 -9 100 -3 30 -8 75 -11 100 -3 25 -7 70 -9 100 -4 51 -11 118 -20 180 -2
14 -6 57 -10 95 -3 39 -8 89 -10 113 -3 23 -7 61 -10 85 -2 23 -7 74 -10 112
-4 39 -8 81 -10 95 -8 55 -23 200 -30 295 -3 39 -7 84 -9 100 -3 17 -7 62 -11
100 -3 39 -8 84 -10 100 -2 17 -7 70 -10 119 -4 48 -8 97 -10 107 -2 10 -7 60
-10 111 -4 51 -8 103 -10 115 -2 12 -7 66 -10 120 -4 54 -8 116 -10 138 -25
300 -25 812 0 1015 2 19 6 69 10 110 3 41 7 89 10 105 3 17 7 50 10 75 8 74
16 132 25 185 5 28 11 66 14 85 11 75 67 330 96 435 17 61 33 117 35 125 2 8
20 65 40 125 182 549 450 986 934 1525 108 120 456 468 580 580 52 47 101 92
110 100 9 9 50 45 91 80 41 36 77 67 80 70 3 3 86 72 185 153 99 81 187 153
195 161 17 15 220 172 297 230 l52 40 -21 35 c-12 20 -80 129 -150 242 l-128
206 -142 -70 c-655 -320 -1183 -533 -1683 -675 -134 -39 -411 -105 -485 -116
-19 -3 -44 -7 -55 -10 -17 -3 -97 -15 -145 -21 -36 -5 -149 -17 -190 -20 -56
-5 -336 -5 -370 -1 -14 2 -55 7 -92 10 -37 4 -77 9 -90 11 -13 2 -54 9 -93 16
-38 6 -83 13 -100 16 -49 8 -282 62 -385 90 -52 14 -102 26 -110 28 -8 2 -46
13 -85 25 -38 11 -101 30 -140 41 -84 25 -569 186 -675 224 -82 30 -417 136
-520 164 -36 11 -119 35 -185 54 -66 20 -190 54 -275 76 -85 22 -171 45 -190
51 -114 32 -511 118 -624 136 -21 3 -48 8 -60 10 -11 2 -39 7 -61 9 -22 3 -51
7 -65 10 -14 2 -52 7 -85 11 -33 3 -73 8 -90 11 -33 5 -482 13 -487 8z"/>
</g>
</svg>
